<svg width="66" height="68" viewBox="0 0 66 68" fill="none" xmlns="http://www.w3.org/2000/svg">
<ellipse cx="1.05744" cy="1.09678" rx="1.05744" ry="1.09678" fill="#F7F7F7"/>
<ellipse cx="7.4051" cy="1.09678" rx="1.05744" ry="1.09678" fill="#F7F7F7"/>
<ellipse cx="13.7449" cy="1.09678" rx="1.05744" ry="1.09678" fill="#F7F7F7"/>
<ellipse cx="20.0926" cy="1.09678" rx="1.05744" ry="1.09678" fill="#F7F7F7"/>
<ellipse cx="26.4363" cy="1.09678" rx="1.05744" ry="1.09678" fill="#F7F7F7"/>
<ellipse cx="32.7801" cy="1.09678" rx="1.05744" ry="1.09678" fill="#F7F7F7"/>
<ellipse cx="39.1239" cy="1.09678" rx="1.05744" ry="1.09678" fill="#F7F7F7"/>
<ellipse cx="45.4715" cy="1.09678" rx="1.05744" ry="1.09678" fill="#F7F7F7"/>
<ellipse cx="51.8153" cy="1.09678" rx="1.05744" ry="1.09678" fill="#F7F7F7"/>
<ellipse cx="58.159" cy="1.09678" rx="1.05744" ry="1.09678" fill="#F7F7F7"/>
<ellipse cx="64.5028" cy="1.09678" rx="1.05744" ry="1.09678" fill="#F7F7F7"/>
<ellipse cx="1.05744" cy="7.67783" rx="1.05744" ry="1.09678" fill="#F7F7F7"/>
<ellipse cx="7.4051" cy="7.67686" rx="1.05744" ry="1.09678" fill="#F7F7F7"/>
<ellipse cx="13.7449" cy="7.67686" rx="1.05744" ry="1.09678" fill="#F7F7F7"/>
<ellipse cx="20.0926" cy="7.67686" rx="1.05744" ry="1.09678" fill="#F7F7F7"/>
<ellipse cx="26.4363" cy="7.67783" rx="1.05744" ry="1.09678" fill="#F7F7F7"/>
<ellipse cx="32.7801" cy="7.67783" rx="1.05744" ry="1.09678" fill="#F7F7F7"/>
<ellipse cx="39.1239" cy="7.67783" rx="1.05744" ry="1.09678" fill="#F7F7F7"/>
<ellipse cx="45.4715" cy="7.67686" rx="1.05744" ry="1.09678" fill="#F7F7F7"/>
<ellipse cx="51.8153" cy="7.67783" rx="1.05744" ry="1.09678" fill="#F7F7F7"/>
<ellipse cx="58.159" cy="7.67783" rx="1.05744" ry="1.09678" fill="#F7F7F7"/>
<ellipse cx="64.5028" cy="7.67783" rx="1.05744" ry="1.09678" fill="#F7F7F7"/>
<ellipse cx="1.05744" cy="14.2579" rx="1.05744" ry="1.09678" fill="#F7F7F7"/>
<ellipse cx="7.4051" cy="14.2589" rx="1.05744" ry="1.09678" fill="#F7F7F7"/>
<ellipse cx="13.7449" cy="14.2589" rx="1.05744" ry="1.09678" fill="#F7F7F7"/>
<ellipse cx="20.0926" cy="14.2589" rx="1.05744" ry="1.09678" fill="#F7F7F7"/>
<ellipse cx="26.4363" cy="14.2579" rx="1.05744" ry="1.09678" fill="#F7F7F7"/>
<ellipse cx="32.7801" cy="14.2579" rx="1.05744" ry="1.09678" fill="#F7F7F7"/>
<ellipse cx="39.1239" cy="14.2579" rx="1.05744" ry="1.09678" fill="#F7F7F7"/>
<ellipse cx="45.4715" cy="14.2589" rx="1.05744" ry="1.09678" fill="#F7F7F7"/>
<ellipse cx="51.8153" cy="14.2579" rx="1.05744" ry="1.09678" fill="#F7F7F7"/>
<ellipse cx="58.159" cy="14.2579" rx="1.05744" ry="1.09678" fill="#F7F7F7"/>
<ellipse cx="64.5028" cy="14.2579" rx="1.05744" ry="1.09678" fill="#F7F7F7"/>
<ellipse cx="1.05744" cy="20.839" rx="1.05744" ry="1.09678" fill="#F7F7F7"/>
<ellipse cx="7.4051" cy="20.839" rx="1.05744" ry="1.09678" fill="#F7F7F7"/>
<ellipse cx="13.7449" cy="20.839" rx="1.05744" ry="1.09678" fill="#F7F7F7"/>
<ellipse cx="20.0926" cy="20.839" rx="1.05744" ry="1.09678" fill="#F7F7F7"/>
<ellipse cx="26.4363" cy="20.839" rx="1.05744" ry="1.09678" fill="#F7F7F7"/>
<ellipse cx="32.7801" cy="20.839" rx="1.05744" ry="1.09678" fill="#F7F7F7"/>
<ellipse cx="39.1239" cy="20.839" rx="1.05744" ry="1.09678" fill="#F7F7F7"/>
<ellipse cx="45.4715" cy="20.839" rx="1.05744" ry="1.09678" fill="#F7F7F7"/>
<ellipse cx="51.8153" cy="20.839" rx="1.05744" ry="1.09678" fill="#F7F7F7"/>
<ellipse cx="58.159" cy="20.839" rx="1.05744" ry="1.09678" fill="#F7F7F7"/>
<ellipse cx="64.5028" cy="20.839" rx="1.05744" ry="1.09678" fill="#F7F7F7"/>
<ellipse cx="1.05744" cy="27.419" rx="1.05744" ry="1.09678" fill="#F7F7F7"/>
<ellipse cx="7.4051" cy="27.419" rx="1.05744" ry="1.09678" fill="#F7F7F7"/>
<ellipse cx="13.7449" cy="27.419" rx="1.05744" ry="1.09678" fill="#F7F7F7"/>
<ellipse cx="20.0926" cy="27.419" rx="1.05744" ry="1.09678" fill="#F7F7F7"/>
<ellipse cx="26.4363" cy="27.419" rx="1.05744" ry="1.09678" fill="#F7F7F7"/>
<ellipse cx="32.7801" cy="27.419" rx="1.05744" ry="1.09678" fill="#F7F7F7"/>
<ellipse cx="39.1239" cy="27.419" rx="1.05744" ry="1.09678" fill="#F7F7F7"/>
<ellipse cx="45.4715" cy="27.419" rx="1.05744" ry="1.09678" fill="#F7F7F7"/>
<ellipse cx="51.8153" cy="27.419" rx="1.05744" ry="1.09678" fill="#F7F7F7"/>
<ellipse cx="58.159" cy="27.419" rx="1.05744" ry="1.09678" fill="#F7F7F7"/>
<ellipse cx="64.5028" cy="27.419" rx="1.05744" ry="1.09678" fill="#F7F7F7"/>
<ellipse cx="1.05744" cy="34.0001" rx="1.05744" ry="1.09678" fill="#F7F7F7"/>
<ellipse cx="7.4051" cy="34.0001" rx="1.05744" ry="1.09678" fill="#F7F7F7"/>
<ellipse cx="13.7449" cy="34.0001" rx="1.05744" ry="1.09678" fill="#F7F7F7"/>
<ellipse cx="20.0926" cy="34.0001" rx="1.05744" ry="1.09678" fill="#F7F7F7"/>
<ellipse cx="26.4363" cy="34.0001" rx="1.05744" ry="1.09678" fill="#F7F7F7"/>
<ellipse cx="32.7801" cy="34.0001" rx="1.05744" ry="1.09678" fill="#F7F7F7"/>
<ellipse cx="39.1239" cy="34.0001" rx="1.05744" ry="1.09678" fill="#F7F7F7"/>
<ellipse cx="45.4715" cy="34.0001" rx="1.05744" ry="1.09678" fill="#F7F7F7"/>
<ellipse cx="51.8153" cy="34.0001" rx="1.05744" ry="1.09678" fill="#F7F7F7"/>
<ellipse cx="58.159" cy="34.0001" rx="1.05744" ry="1.09678" fill="#F7F7F7"/>
<ellipse cx="64.5028" cy="34.0001" rx="1.05744" ry="1.09678" fill="#F7F7F7"/>
<ellipse cx="1.05744" cy="40.5812" rx="1.05744" ry="1.09678" fill="#F7F7F7"/>
<ellipse cx="7.4051" cy="40.5812" rx="1.05744" ry="1.09678" fill="#F7F7F7"/>
<ellipse cx="13.7449" cy="40.5812" rx="1.05744" ry="1.09678" fill="#F7F7F7"/>
<ellipse cx="20.0926" cy="40.5812" rx="1.05744" ry="1.09678" fill="#F7F7F7"/>
<ellipse cx="26.4363" cy="40.5812" rx="1.05744" ry="1.09678" fill="#F7F7F7"/>
<ellipse cx="32.7801" cy="40.5812" rx="1.05744" ry="1.09678" fill="#F7F7F7"/>
<ellipse cx="39.1239" cy="40.5812" rx="1.05744" ry="1.09678" fill="#F7F7F7"/>
<ellipse cx="45.4715" cy="40.5812" rx="1.05744" ry="1.09678" fill="#F7F7F7"/>
<ellipse cx="51.8153" cy="40.5812" rx="1.05744" ry="1.09678" fill="#F7F7F7"/>
<ellipse cx="58.159" cy="40.5812" rx="1.05744" ry="1.09678" fill="#F7F7F7"/>
<ellipse cx="64.5028" cy="40.5812" rx="1.05744" ry="1.09678" fill="#F7F7F7"/>
<ellipse cx="1.05744" cy="47.1612" rx="1.05744" ry="1.09678" fill="#F7F7F7"/>
<ellipse cx="7.4051" cy="47.1612" rx="1.05744" ry="1.09678" fill="#F7F7F7"/>
<ellipse cx="13.7449" cy="47.1612" rx="1.05744" ry="1.09678" fill="#F7F7F7"/>
<ellipse cx="20.0926" cy="47.1612" rx="1.05744" ry="1.09678" fill="#F7F7F7"/>
<ellipse cx="26.4363" cy="47.1612" rx="1.05744" ry="1.09678" fill="#F7F7F7"/>
<ellipse cx="32.7801" cy="47.1612" rx="1.05744" ry="1.09678" fill="#F7F7F7"/>
<ellipse cx="39.1239" cy="47.1612" rx="1.05744" ry="1.09678" fill="#F7F7F7"/>
<ellipse cx="45.4715" cy="47.1612" rx="1.05744" ry="1.09678" fill="#F7F7F7"/>
<ellipse cx="51.8153" cy="47.1612" rx="1.05744" ry="1.09678" fill="#F7F7F7"/>
<ellipse cx="58.159" cy="47.1612" rx="1.05744" ry="1.09678" fill="#F7F7F7"/>
<ellipse cx="64.5028" cy="47.1612" rx="1.05744" ry="1.09678" fill="#F7F7F7"/>
<ellipse cx="1.05744" cy="53.7423" rx="1.05744" ry="1.09678" fill="#F7F7F7"/>
<ellipse cx="7.4051" cy="53.7413" rx="1.05744" ry="1.09678" fill="#F7F7F7"/>
<ellipse cx="13.7449" cy="53.7413" rx="1.05744" ry="1.09678" fill="#F7F7F7"/>
<ellipse cx="20.0926" cy="53.7413" rx="1.05744" ry="1.09678" fill="#F7F7F7"/>
<ellipse cx="26.4363" cy="53.7423" rx="1.05744" ry="1.09678" fill="#F7F7F7"/>
<ellipse cx="32.7801" cy="53.7423" rx="1.05744" ry="1.09678" fill="#F7F7F7"/>
<ellipse cx="39.1239" cy="53.7423" rx="1.05744" ry="1.09678" fill="#F7F7F7"/>
<ellipse cx="45.4715" cy="53.7413" rx="1.05744" ry="1.09678" fill="#F7F7F7"/>
<ellipse cx="51.8153" cy="53.7423" rx="1.05744" ry="1.09678" fill="#F7F7F7"/>
<ellipse cx="58.159" cy="53.7423" rx="1.05744" ry="1.09678" fill="#F7F7F7"/>
<ellipse cx="64.5028" cy="53.7423" rx="1.05744" ry="1.09678" fill="#F7F7F7"/>
<ellipse cx="1.05744" cy="60.3233" rx="1.05744" ry="1.09678" fill="#F7F7F7"/>
<ellipse cx="7.4051" cy="60.3233" rx="1.05744" ry="1.09678" fill="#F7F7F7"/>
<ellipse cx="13.7449" cy="60.3233" rx="1.05744" ry="1.09678" fill="#F7F7F7"/>
<ellipse cx="20.0926" cy="60.3233" rx="1.05744" ry="1.09678" fill="#F7F7F7"/>
<ellipse cx="26.4363" cy="60.3233" rx="1.05744" ry="1.09678" fill="#F7F7F7"/>
<ellipse cx="32.7801" cy="60.3233" rx="1.05744" ry="1.09678" fill="#F7F7F7"/>
<ellipse cx="39.1239" cy="60.3233" rx="1.05744" ry="1.09678" fill="#F7F7F7"/>
<ellipse cx="45.4715" cy="60.3233" rx="1.05744" ry="1.09678" fill="#F7F7F7"/>
<ellipse cx="51.8153" cy="60.3233" rx="1.05744" ry="1.09678" fill="#F7F7F7"/>
<ellipse cx="58.159" cy="60.3233" rx="1.05744" ry="1.09678" fill="#F7F7F7"/>
<ellipse cx="64.5028" cy="60.3233" rx="1.05744" ry="1.09678" fill="#F7F7F7"/>
<ellipse cx="1.05744" cy="66.9024" rx="1.05744" ry="1.09678" fill="#F7F7F7"/>
<ellipse cx="7.4051" cy="66.9034" rx="1.05744" ry="1.09678" fill="#F7F7F7"/>
<ellipse cx="13.7449" cy="66.9034" rx="1.05744" ry="1.09678" fill="#F7F7F7"/>
<ellipse cx="20.0926" cy="66.9034" rx="1.05744" ry="1.09678" fill="#F7F7F7"/>
<ellipse cx="26.4363" cy="66.9024" rx="1.05744" ry="1.09678" fill="#F7F7F7"/>
<ellipse cx="32.7801" cy="66.9024" rx="1.05744" ry="1.09678" fill="#F7F7F7"/>
<ellipse cx="39.1239" cy="66.9024" rx="1.05744" ry="1.09678" fill="#F7F7F7"/>
<ellipse cx="45.4715" cy="66.9034" rx="1.05744" ry="1.09678" fill="#F7F7F7"/>
<ellipse cx="51.8153" cy="66.9024" rx="1.05744" ry="1.09678" fill="#F7F7F7"/>
<ellipse cx="58.159" cy="66.9024" rx="1.05744" ry="1.09678" fill="#F7F7F7"/>
<ellipse cx="64.5028" cy="66.9024" rx="1.05744" ry="1.09678" fill="#F7F7F7"/>
</svg>
